. 
  
http://www.torrenting.com/        :     Greatest Movie Tracker on The Net!!!
 
http://www.Torrenting.com          :     Once & For all ;)


               www . Torrenting . Com 

(((((((((((((= Enjoy No RAR releases =))))))))))))))))))))


...................................NFO:....................................

.[img]http://img703.imageshack.us/img703/22/knoccov.jpg[/img]

[color=blue][size=5][b]Knockout.2011.DVDRip.XVID.AC3.HQ.Hive-CM8[/b][/size][/color]


[b]Thx Hive


CM8 Doing It Right The First Time :D


Source R1 DVD-R

Video: 720x400 @bitrate 1800 2pass
Audio: English AC3 5.1 @384
Sample: yes included[/b]


[url]http://www.imdb.com/title/tt1691453/[/url]


General
Complete name                    : Knockout.2011.DVDRip.XVID.AC3.HQ.Hive-CM8.avi
Format                           : AVI
Format/Info                      : Audio Video Interleave
File size                        : 1.46 GiB
Duration                         : 1h 35mn
Overall bit rate                 : 2 193 Kbps
Writing application              : Nandub v1.0rc2
Writing library                  : Nandub build 1853/release

Video
ID                               : 0
Format                           : MPEG-4 Visual
Format profile                   : Advanced Simple@L5
Format settings, BVOP            : Yes
Format settings, QPel            : Yes
Format settings, GMC             : No warppoints
Format settings, Matrix          : Default (H.263)
Muxing mode                      : Packed bitstream
Codec ID                         : XVID
Codec ID/Hint                    : XviD
Duration                         : 1h 35mn
Bit rate                         : 1 800 Kbps
Width                            : 720 pixels
Height                           : 400 pixels
Display aspect ratio             : 16:9
Frame rate                       : 23.976 fps
Color space                      : YUV
Chroma subsampling               : 4:2:0
Bit depth                        : 8 bits
Scan type                        : Progressive
Bits/(Pixel*Frame)               : 0.261
Stream size                      : 1.20 GiB (82%)
Writing library                  : XviD 1.2.1 (UTC 2008-12-04)

Audio
ID                               : 1
Format                           : AC-3
Format/Info                      : Audio Coding 3
Mode extension                   : CM (complete main)
Codec ID                         : 2000
Duration                         : 1h 35mn
Bit rate mode                    : Constant
Bit rate                         : 384 Kbps
Channel(s)                       : 6 channels
Channel positions                : Front: L C R, Side: L R, LFE
Sampling rate                    : 48.0 KHz
Bit depth                        : 16 bits
Stream size                      : 261 MiB (18%)
Alignment                        : Split accross interleaves
Interleave, duration             : 42 ms (1.00 video frame)
Interleave, preload duration     : 500 ms


Steve Austin	 ... 	Dan
Daniel Magder	... 	Matthew Miller
Jaren Brandt Bartlett	... 	Hector Torres
Emma Grabinsky	... 	Ruby
Tess Atkins	... 	Teresa Terrel


Dan Barnes (Steve Austin) is a former pro boxer who retired after growing 
weary of his violent existence. Now a school janitor, Dan tries to help a 
new student, Matthew Miller (Daniel Magder), who is being targeted by bullies. 
While Matthew learns how to box and stand up to his tormentors, one of whom is 
the school boxing champ (Jaren Brandt Bartlett), Dan's new found role as a 
teacher helps him come to terms with his tumultuous past. 
 

[img]http://img821.imageshack.us/img821/6898/71175301.png[/img]
[img]http://img705.imageshack.us/img705/2291/knkn.png[/img]
[img]http://img835.imageshack.us/img835/6615/knknkn.png[/img]
[img]http://img684.imageshack.us/img684/4360/knknknkn.png[/img]
[img]http://img683.imageshack.us/img683/4488/knknknknkn.png[/img]
[img]http://img854.imageshack.us/img854/6568/knknknknknkn.png[/img]
[img]http://img849.imageshack.us/img849/2797/knknknknknknkn.png[/img]

dvdcover:

[img]http://img835.imageshack.us/img835/599/knockout2011widescreenf.jpg[/img]



ViSiON,LUSi,SANTi,MAGNET,THC,T0XiCiNK,LKRG,IMAGiNE,WBZ,FLAWL3SS,NOVA
Vik,Rapeseed,D2U,SAFC,goldadvance,MEMORY100,KaN1vE,Unevano,Pinnz,Wayne,Mr Hive
and all P2P groups 
Great Work Guys :D

CM8@hushmail.com